<svg width="16" height="14" viewBox="0 0 16 14" fill="none" xmlns="http://www.w3.org/2000/svg">
<path fill-rule="evenodd" clip-rule="evenodd" d="M10.2802 1.03838C11.0377 1.33988 11.2695 2.38988 11.5792 2.72738C11.889 3.06488 12.3322 3.17963 12.5775 3.17963C13.881 3.17963 14.9377 4.23638 14.9377 5.53913V9.88538C14.9377 11.6329 13.5202 13.0504 11.7727 13.0504H4.22774C2.47949 13.0504 1.06274 11.6329 1.06274 9.88538V5.53913C1.06274 4.23638 2.11949 3.17963 3.42299 3.17963C3.66749 3.17963 4.11074 3.06488 4.42124 2.72738C4.73099 2.38988 4.96199 1.33988 5.71949 1.03838C6.47774 0.736881 9.52274 0.736881 10.2802 1.03838Z" stroke="white" stroke-width="1.5" stroke-linecap="round" stroke-linejoin="round"/>
<path d="M12.1216 5.125H12.1284" stroke="white" stroke-width="2" stroke-linecap="round" stroke-linejoin="round"/>
<path fill-rule="evenodd" clip-rule="evenodd" d="M10.3842 7.84592C10.3842 6.52892 9.31697 5.46167 7.99997 5.46167C6.68297 5.46167 5.61572 6.52892 5.61572 7.84592C5.61572 9.16292 6.68297 10.2302 7.99997 10.2302C9.31697 10.2302 10.3842 9.16292 10.3842 7.84592Z" stroke="white" stroke-width="1.5" stroke-linecap="round" stroke-linejoin="round"/>
</svg>
