<svg width="199" height="54" viewBox="0 0 199 54" fill="none" xmlns="http://www.w3.org/2000/svg">
<rect width="199" height="54" rx="27" fill="#FEFFFF"/>
<path d="M38.0464 23.5433H34.0621C33.9484 22.8899 33.7389 22.3111 33.4335 21.8068C33.1281 21.2955 32.7481 20.8622 32.2936 20.5071C31.8391 20.152 31.3206 19.8857 30.7382 19.7081C30.1629 19.5234 29.5415 19.4311 28.8739 19.4311C27.6878 19.4311 26.6366 19.7294 25.7204 20.326C24.8043 20.9155 24.0869 21.782 23.5685 22.9254C23.05 24.0618 22.7908 25.4503 22.7908 27.0909C22.7908 28.7599 23.05 30.1662 23.5685 31.3097C24.094 32.446 24.8114 33.3054 25.7204 33.8878C26.6366 34.4631 27.6842 34.7507 28.8632 34.7507C29.5166 34.7507 30.1274 34.6655 30.6956 34.495C31.2709 34.3175 31.7858 34.0582 32.2403 33.7173C32.702 33.3764 33.0891 32.9574 33.4016 32.4602C33.7212 31.9631 33.9413 31.3949 34.0621 30.7557L38.0464 30.777C37.8973 31.8139 37.5741 32.7869 37.077 33.696C36.5869 34.6051 35.9442 35.4077 35.1487 36.1037C34.3533 36.7926 33.4229 37.3324 32.3575 37.723C31.2922 38.1065 30.1096 38.2983 28.8099 38.2983C26.8923 38.2983 25.1807 37.8544 23.675 36.9666C22.1693 36.0788 20.9832 34.7969 20.1168 33.1207C19.2503 31.4446 18.817 29.4347 18.817 27.0909C18.817 24.7401 19.2538 22.7301 20.1274 21.0611C21.001 19.3849 22.1906 18.103 23.6963 17.2152C25.202 16.3274 26.9065 15.8835 28.8099 15.8835C30.0244 15.8835 31.1537 16.054 32.1977 16.3949C33.2418 16.7358 34.1722 17.2365 34.9889 17.897C35.8057 18.5504 36.4768 19.353 37.0024 20.3047C37.5351 21.2493 37.8831 22.3288 38.0464 23.5433ZM46.0393 38.3303C45.0024 38.3303 44.0684 38.1456 43.2374 37.7763C42.4136 37.3999 41.7602 36.8459 41.2772 36.1143C40.8014 35.3828 40.5634 34.4808 40.5634 33.4084C40.5634 32.4851 40.7339 31.7216 41.0748 31.1179C41.4157 30.5142 41.8809 30.0312 42.4704 29.669C43.0599 29.3068 43.7239 29.0334 44.4626 28.8487C45.2083 28.657 45.9789 28.5185 46.7744 28.4332C47.7332 28.3338 48.5109 28.245 49.1075 28.1669C49.7041 28.0817 50.1373 27.9538 50.4072 27.7834C50.6842 27.6058 50.8227 27.3324 50.8227 26.9631V26.8991C50.8227 26.0966 50.5847 25.4751 50.1089 25.0348C49.633 24.5945 48.9477 24.3743 48.0528 24.3743C47.1082 24.3743 46.3589 24.5803 45.8049 24.9922C45.258 25.4041 44.8887 25.8906 44.697 26.4517L41.0961 25.9403C41.3802 24.946 41.8489 24.1151 42.5024 23.4474C43.1558 22.7727 43.9548 22.2685 44.8994 21.9347C45.844 21.5938 46.888 21.4233 48.0315 21.4233C48.8198 21.4233 49.6046 21.5156 50.3859 21.7003C51.1671 21.8849 51.8809 22.1903 52.5272 22.6165C53.1735 23.0355 53.692 23.6072 54.0826 24.3317C54.4803 25.0561 54.6792 25.9616 54.6792 27.0483V38H50.9718V35.7521H50.844C50.6096 36.2067 50.2793 36.6328 49.8532 37.0305C49.4342 37.4212 48.9051 37.7372 48.2658 37.9787C47.6337 38.2131 46.8916 38.3303 46.0393 38.3303ZM47.0407 35.4964C47.8149 35.4964 48.486 35.3437 49.0542 35.0384C49.6224 34.7259 50.0592 34.3139 50.3646 33.8026C50.6771 33.2912 50.8333 32.7337 50.8333 32.13V30.2017C50.7126 30.3011 50.5066 30.3935 50.2154 30.4787C49.9313 30.5639 49.6117 30.6385 49.2566 30.7024C48.9015 30.7663 48.5499 30.8232 48.2019 30.8729C47.8539 30.9226 47.5521 30.9652 47.2964 31.0007C46.7211 31.0788 46.2062 31.2067 45.7516 31.3842C45.2971 31.5618 44.9384 31.8104 44.6757 32.13C44.4129 32.4425 44.2815 32.8473 44.2815 33.3445C44.2815 34.0547 44.5407 34.5909 45.0592 34.9531C45.5776 35.3153 46.2382 35.4964 47.0407 35.4964ZM58.392 38V21.6364H62.1314V24.3636H62.3018C62.6001 23.419 63.1115 22.6911 63.8359 22.1797C64.5675 21.6612 65.402 21.402 66.3395 21.402C66.5526 21.402 66.7905 21.4126 67.0533 21.4339C67.3231 21.4482 67.5469 21.473 67.7244 21.5085V25.0561C67.5611 24.9993 67.3018 24.9496 66.9467 24.907C66.5987 24.8572 66.2614 24.8324 65.9347 24.8324C65.2315 24.8324 64.5994 24.9851 64.0383 25.2905C63.4844 25.5888 63.0476 26.0043 62.728 26.5369C62.4084 27.0696 62.2486 27.6839 62.2486 28.38V38H58.392Z" fill="#008DBC"/>
<path d="M96.2439 23.5433H92.2595C92.1459 22.8899 91.9363 22.3111 91.6309 21.8068C91.3255 21.2955 90.9456 20.8622 90.491 20.5071C90.0365 20.152 89.518 19.8857 88.9356 19.7081C88.3603 19.5234 87.7389 19.4311 87.0713 19.4311C85.8852 19.4311 84.8341 19.7294 83.9179 20.326C83.0017 20.9155 82.2843 21.782 81.7659 22.9254C81.2474 24.0618 80.9882 25.4503 80.9882 27.0909C80.9882 28.7599 81.2474 30.1662 81.7659 31.3097C82.2914 32.446 83.0088 33.3054 83.9179 33.8878C84.8341 34.4631 85.8816 34.7507 87.0606 34.7507C87.714 34.7507 88.3248 34.6655 88.893 34.495C89.4683 34.3175 89.9832 34.0582 90.4378 33.7173C90.8994 33.3764 91.2865 32.9574 91.599 32.4602C91.9186 31.9631 92.1387 31.3949 92.2595 30.7557L96.2439 30.777C96.0947 31.8139 95.7716 32.7869 95.2744 33.696C94.7843 34.6051 94.1416 35.4077 93.3461 36.1037C92.5507 36.7926 91.6203 37.3324 90.5549 37.723C89.4896 38.1065 88.3071 38.2983 87.0074 38.2983C85.0897 38.2983 83.3781 37.8544 81.8724 36.9666C80.3667 36.0788 79.1807 34.7969 78.3142 33.1207C77.4477 31.4446 77.0145 29.4347 77.0145 27.0909C77.0145 24.7401 77.4512 22.7301 78.3248 21.0611C79.1984 19.3849 80.388 18.103 81.8937 17.2152C83.3994 16.3274 85.1039 15.8835 87.0074 15.8835C88.2218 15.8835 89.3511 16.054 90.3951 16.3949C91.4392 16.7358 92.3696 17.2365 93.1863 17.897C94.0031 18.5504 94.6743 19.353 95.1998 20.3047C95.7325 21.2493 96.0805 22.3288 96.2439 23.5433ZM106.666 38.3196C105.068 38.3196 103.683 37.968 102.511 37.2649C101.339 36.5618 100.43 35.5781 99.7836 34.3139C99.1444 33.0497 98.8248 31.5724 98.8248 29.8821C98.8248 28.1918 99.1444 26.7109 99.7836 25.4396C100.43 24.1683 101.339 23.1811 102.511 22.478C103.683 21.7749 105.068 21.4233 106.666 21.4233C108.264 21.4233 109.649 21.7749 110.821 22.478C111.992 23.1811 112.898 24.1683 113.537 25.4396C114.183 26.7109 114.507 28.1918 114.507 29.8821C114.507 31.5724 114.183 33.0497 113.537 34.3139C112.898 35.5781 111.992 36.5618 110.821 37.2649C109.649 37.968 108.264 38.3196 106.666 38.3196ZM106.687 35.2301C107.553 35.2301 108.278 34.9922 108.86 34.5163C109.443 34.0334 109.876 33.3871 110.16 32.5774C110.451 31.7678 110.597 30.8658 110.597 29.8714C110.597 28.87 110.451 27.9645 110.16 27.1548C109.876 26.3381 109.443 25.6882 108.86 25.2053C108.278 24.7223 107.553 24.4808 106.687 24.4808C105.799 24.4808 105.061 24.7223 104.471 25.2053C103.889 25.6882 103.452 26.3381 103.161 27.1548C102.877 27.9645 102.735 28.87 102.735 29.8714C102.735 30.8658 102.877 31.7678 103.161 32.5774C103.452 33.3871 103.889 34.0334 104.471 34.5163C105.061 34.9922 105.799 35.2301 106.687 35.2301ZM121.471 28.4119V38H117.615V21.6364H121.301V24.4169H121.493C121.869 23.5007 122.469 22.7727 123.293 22.233C124.124 21.6932 125.15 21.4233 126.372 21.4233C127.501 21.4233 128.485 21.6648 129.323 22.1477C130.168 22.6307 130.822 23.3303 131.283 24.2464C131.752 25.1626 131.983 26.2741 131.976 27.581V38H128.119V28.1776C128.119 27.0838 127.835 26.228 127.267 25.6101C126.706 24.9922 125.928 24.6832 124.934 24.6832C124.259 24.6832 123.659 24.8324 123.133 25.1307C122.615 25.4219 122.206 25.8445 121.908 26.3984C121.617 26.9524 121.471 27.6236 121.471 28.4119ZM143.902 21.6364V24.6193H134.495V21.6364H143.902ZM136.818 17.7159H140.674V33.0781C140.674 33.5966 140.752 33.9943 140.909 34.2713C141.072 34.5412 141.285 34.7259 141.548 34.8253C141.811 34.9247 142.102 34.9744 142.421 34.9744C142.663 34.9744 142.883 34.9567 143.082 34.9212C143.288 34.8857 143.444 34.8537 143.551 34.8253L144.201 37.8402C143.995 37.9112 143.7 37.9893 143.316 38.0746C142.94 38.1598 142.478 38.2095 141.931 38.2237C140.965 38.2521 140.095 38.1065 139.321 37.7869C138.547 37.4602 137.933 36.956 137.478 36.2741C137.031 35.5923 136.811 34.7401 136.818 33.7173V17.7159ZM146.963 38V21.6364H150.702V24.3636H150.872C151.171 23.419 151.682 22.6911 152.406 22.1797C153.138 21.6612 153.973 21.402 154.91 21.402C155.123 21.402 155.361 21.4126 155.624 21.4339C155.894 21.4482 156.117 21.473 156.295 21.5085V25.0561C156.132 24.9993 155.872 24.9496 155.517 24.907C155.169 24.8572 154.832 24.8324 154.505 24.8324C153.802 24.8324 153.17 24.9851 152.609 25.2905C152.055 25.5888 151.618 26.0043 151.299 26.5369C150.979 27.0696 150.819 27.6839 150.819 28.38V38H146.963ZM165.156 38.3196C163.558 38.3196 162.173 37.968 161.001 37.2649C159.829 36.5618 158.92 35.5781 158.274 34.3139C157.635 33.0497 157.315 31.5724 157.315 29.8821C157.315 28.1918 157.635 26.7109 158.274 25.4396C158.92 24.1683 159.829 23.1811 161.001 22.478C162.173 21.7749 163.558 21.4233 165.156 21.4233C166.754 21.4233 168.139 21.7749 169.311 22.478C170.483 23.1811 171.388 24.1683 172.028 25.4396C172.674 26.7109 172.997 28.1918 172.997 29.8821C172.997 31.5724 172.674 33.0497 172.028 34.3139C171.388 35.5781 170.483 36.5618 169.311 37.2649C168.139 37.968 166.754 38.3196 165.156 38.3196ZM165.177 35.2301C166.044 35.2301 166.768 34.9922 167.351 34.5163C167.933 34.0334 168.366 33.3871 168.65 32.5774C168.942 31.7678 169.087 30.8658 169.087 29.8714C169.087 28.87 168.942 27.9645 168.65 27.1548C168.366 26.3381 167.933 25.6882 167.351 25.2053C166.768 24.7223 166.044 24.4808 165.177 24.4808C164.29 24.4808 163.551 24.7223 162.961 25.2053C162.379 25.6882 161.942 26.3381 161.651 27.1548C161.367 27.9645 161.225 28.87 161.225 29.8714C161.225 30.8658 161.367 31.7678 161.651 32.5774C161.942 33.3871 162.379 34.0334 162.961 34.5163C163.551 34.9922 164.29 35.2301 165.177 35.2301ZM179.962 16.1818V38H176.105V16.1818H179.962Z" fill="#00C3AB"/>
</svg>
