<?xml version="1.0" encoding="UTF-8"?>
<!DOCTYPE svg PUBLIC "-//W3C//DTD SVG 1.1//EN" "http://www.w3.org/Graphics/SVG/1.1/DTD/svg11.dtd">
<!-- Creator: CorelDRAW 2021.5 -->
<svg xmlns="http://www.w3.org/2000/svg" xml:space="preserve" width="3.8189in" height="0.787402in" version="1.1" style="shape-rendering:geometricPrecision; text-rendering:geometricPrecision; image-rendering:optimizeQuality; fill-rule:evenodd; clip-rule:evenodd"
viewBox="0 0 3818.9 787.4"
 xmlns:xlink="http://www.w3.org/1999/xlink"
 xmlns:xodm="http://www.corel.com/coreldraw/odm/2003">
 <defs>
  <style type="text/css">
   <![CDATA[
    .fil0 {fill:#00AF50}
    .fil1 {fill:#00AF50;fill-rule:nonzero}
   ]]>
  </style>
 </defs>
 <g id="Layer_x0020_1">
  <metadata id="CorelCorpID_0Corel-Layer"/>
  <g id="_1837527366448">
   <g>
    <path class="fil0" d="M784.59 160.76c-347.9,0 -629.92,282.03 -629.92,629.93l314.96 0c0,-173.94 141.01,-314.96 314.96,-314.96l0 -314.97z"/>
    <path class="fil0" d="M43.31 49.41c-61.3,61.3 -61.48,160.56 -0.58,222.1l-0.02 0 0.48 0.48 0.11 0.13 0.13 0.11 111.24 111.24 111.22 -111.24 0.12 -0.11 0.13 -0.13 0.48 -0.48 -0.01 0c60.9,-61.54 60.72,-160.8 -0.59,-222.1 -61.49,-61.5 -161.2,-61.5 -222.71,0zm111.36 46.39c35.87,0 64.96,29.09 64.96,64.96 0,35.88 -29.09,64.96 -64.96,64.96 -35.88,0 -64.96,-29.08 -64.96,-64.96 0,-35.87 29.08,-64.96 64.96,-64.96z"/>
   </g>
   <g>
    <g>
     <path class="fil1" d="M1080.63 432.4l115.72 0c64.04,0 115.72,-51.67 115.72,-115.72 0,-64.06 -51.69,-115.72 -115.72,-115.72 -63.92,0 -115.72,51.8 -115.72,115.72l0 115.72zm115.72 99.19l-115.72 0 0 148.78 -99.19 0 0 -363.7c0,-118.69 96.22,-214.91 214.91,-214.91 118.57,0 214.91,96.35 214.91,214.91 0,118.57 -96.34,214.91 -214.91,214.91z"/>
     <polygon class="fil0" points="1411.22,680.38 1294.76,680.38 1217.44,531.7 1191.12,531.7 1191.12,531.69 1333.9,531.69 "/>
    </g>
    <path class="fil1" d="M1712.22 551.65c-56.24,77.33 -176.68,52.31 -198.22,-35.2l295.24 0 0 -38.32c0,-102.19 -70.63,-205.87 -189.33,-205.87 -125.48,0 -203.98,93.17 -203.98,205.87 0,119.46 83.76,209.62 206.23,209.62 69.12,0 139.27,-44.7 167.39,-93.91l-77.33 -42.18zm-196.72 -115.6c19.91,-92.41 160.59,-100.84 187.81,0l-187.81 0z"/>
    <path class="fil1" d="M2288.09 680.23c0,-59.23 -4.65,-125.82 -24.18,-194.81 18.79,-66.61 23.81,-144.78 24.18,-202.65 0.38,-58.6 0,-181.07 0,-181.07l-97.68 0c0,12.02 0,122.46 0,180.32 -0.74,18.04 -0.74,42.82 -2.25,59.36 -35.31,-39.82 -81.89,-72.13 -143.5,-72.13 -136.74,0 -206.78,116.33 -206.78,217.52 0,105.56 85.82,205.49 200.78,205.49 64.61,0 113.45,-33.81 149.51,-75.89 1.51,17.41 2.25,43.58 2.25,63.87l97.68 0zm-249.44 -84.15c-50.34,0 -103.1,-46.58 -103.1,-108.94 0,-70.63 46.74,-121.71 109.11,-121.71 38.42,0 79.47,28.5 107.68,80.65 13.9,-14.63 24.81,-36.02 35.42,-70.19 0,80.56 -52.03,220.19 -149.1,220.19z"/>
    <path class="fil1" d="M3250.34 680.23l0 -29.3c0,-202.11 83.4,-280.99 134.49,-280.99 27.05,0 51.09,19.53 51.09,69.11l0 241.18 96.17 0 0 -28.56c0,-209.62 81.89,-281.74 133.73,-281.74 28.56,0 52.6,19.53 52.6,69.11l0 241.18 97.67 0 0 -241.18c0,-81.15 -48.08,-166.8 -148.76,-166.8 -65.37,0 -113.45,33.81 -148.01,92.41 -21.04,-52.59 -66.12,-92.41 -138.24,-92.41 -53.35,0 -100.69,34.56 -129.23,89.41l0 -80.39 -97.67 0 0 398.96 96.17 0z"/>
    <path class="fil1" d="M2602.05 551.65c-56.24,77.33 -176.68,52.31 -198.22,-35.2l295.24 0 0 -38.32c0,-102.19 -70.63,-205.87 -189.33,-205.87 -125.48,0 -203.97,93.17 -203.97,205.87 0,119.46 83.76,209.62 206.23,209.62 69.12,0 139.27,-44.7 167.39,-93.91l-77.33 -42.18zm-196.72 -115.6c19.91,-92.41 160.59,-100.84 187.81,0l-187.81 0z"/>
    <path class="fil1" d="M3026.25 551.65c-56.24,77.33 -176.68,52.31 -198.22,-35.2l295.24 0 0 -38.32c0,-102.19 -70.62,-205.87 -189.33,-205.87 -125.47,0 -203.97,93.17 -203.97,205.87 0,119.46 83.76,209.62 206.23,209.62 69.12,0 139.27,-44.7 167.39,-93.91l-77.33 -42.18zm-196.72 -115.6c19.91,-92.41 160.59,-100.84 187.8,0l-187.8 0z"/>
   </g>
  </g>
 </g>
</svg>
