<svg width="35" height="50" viewBox="0 0 35 50" fill="none" xmlns="http://www.w3.org/2000/svg">
<rect width="34.6667" height="32" rx="16" fill="#FEFFFF"/>
<path d="M34.1465 18C34.1465 26.2843 17.1465 50 17.1465 50C17.1465 50 0.146484 26.2843 0.146484 18C0.146484 9.71573 8.86221 1 17.1465 1C25.4308 1 34.1465 9.71573 34.1465 18Z" fill="#FEFFFF"/>
<circle cx="17.9633" cy="16" r="14.8148" fill="#00C3AB"/>
<path d="M25.7607 4.61653C23.6287 2.82755 21.0317 1.68211 18.2729 1.31402C15.5142 0.945927 12.7077 1.37037 10.1812 2.53778C7.65471 3.70518 5.51253 5.56735 4.00486 7.90679C2.4972 10.2462 1.68629 12.9663 1.66686 15.7494C1.64743 18.5325 2.42028 21.2637 3.89513 23.624C5.36998 25.9843 7.48596 27.8762 9.99591 29.0787C12.5059 30.2813 15.3062 30.7449 18.0698 30.4153C20.8333 30.0858 23.4461 28.9767 25.6029 27.2177L21.895 22.6714C20.6009 23.7268 19.0333 24.3922 17.3751 24.5899C15.717 24.7877 14.0368 24.5095 12.5308 23.788C11.0248 23.0664 9.75526 21.9313 8.87034 20.5151C7.98543 19.099 7.52173 17.4603 7.53338 15.7904C7.54504 14.1205 8.03159 12.4885 8.93619 11.0848C9.84079 9.68115 11.1261 8.56385 12.642 7.8634C14.1579 7.16296 15.8418 6.90829 17.497 7.12915C19.1523 7.35001 20.7105 8.03727 21.9897 9.11066L25.7607 4.61653Z" fill="#008DBC"/>
<path d="M25.7718 6.69406C23.981 5.19141 21.7947 4.23737 19.4751 3.9464C17.1556 3.65543 14.8014 4.03989 12.6949 5.05366C10.5885 6.06742 8.81927 7.66744 7.59956 9.66172C6.37985 11.656 5.76145 13.9599 5.81857 16.2969C5.87568 18.6339 6.60588 20.9048 7.92155 22.8371C9.23722 24.7694 11.0825 26.2811 13.2359 27.1908C15.3894 28.1004 17.7596 28.3694 20.0621 27.9655C22.3647 27.5616 24.5018 26.5019 26.217 24.9135L22.9155 21.3482C21.8863 22.3012 20.6041 22.937 19.2225 23.1793C17.841 23.4217 16.4189 23.2603 15.1268 22.7145C13.8347 22.1687 12.7276 21.2617 11.9382 20.1023C11.1488 18.9429 10.7106 17.5804 10.6764 16.1782C10.6421 14.776 11.0131 13.3936 11.745 12.1971C12.4768 11.0005 13.5383 10.0405 14.8022 9.43222C16.0661 8.82396 17.4786 8.59329 18.8703 8.76787C20.262 8.94245 21.5738 9.51488 22.6483 10.4165L25.7718 6.69406Z" fill="#FEFFFF"/>
<circle cx="18.2594" cy="16.5927" r="5.92593" fill="#008DBC"/>
</svg>
