<svg width="20" height="16" viewBox="0 0 20 16" fill="none" xmlns="http://www.w3.org/2000/svg">
<path fill-rule="evenodd" clip-rule="evenodd" d="M7 2H13C13.5523 2 14 2.44772 14 3V13C14 13.5523 13.5523 14 13 14H7C6.44772 14 6 13.5523 6 13V3C6 2.44772 6.44772 2 7 2ZM13 0C14.6569 0 16 1.34315 16 3V13C16 14.6569 14.6569 16 13 16H7C5.34315 16 4 14.6569 4 13V3C4 1.34315 5.34315 0 7 0H13Z" fill="#818181"/>
<path d="M16 2C16 1.44772 15.5523 1 15 1C14.4477 1 14 1.44772 14 2L18 8L14 14C14 14.5523 14.4477 15 15 15C15.5523 15 16 14.5523 16 14C16 14 20 10.8161 20 8C20 5.18389 16 2 16 2Z" fill="#818181"/>
<path d="M3 2C2.27238 1.51718 1.55228 1 1 1C0.447716 1 0 1.44772 0 2L4 14C4 14.5523 4.44772 15 5 15C5.55228 15 6 14.5523 6 14C6 14 7.02501 4.6708 3 2Z" fill="#818181"/>
</svg>
