<svg width="26" height="22" viewBox="0 0 26 22" fill="none" xmlns="http://www.w3.org/2000/svg">
<path fill-rule="evenodd" clip-rule="evenodd" d="M9.72015 1.37175C9.72015 0.890116 9.32231 0.5 8.83231 0.5H8.83115L6.93064 0.501144C4.37448 0.503432 2.29431 2.54553 2.29431 5.05326V7.22234C2.29431 7.70284 2.69214 8.0941 3.18214 8.0941C3.67214 8.0941 4.07114 7.70284 4.07114 7.22234V5.05326C4.07114 3.50538 5.35448 2.2458 6.93181 2.24351L8.83231 2.24236C9.32348 2.24236 9.72015 1.85225 9.72015 1.37175ZM19.0592 0.500343H17.2007C16.7107 0.500343 16.3129 0.890459 16.3129 1.3721C16.3129 1.85259 16.7107 2.24156 17.2007 2.24156H19.0592C20.6424 2.24156 21.9304 3.50458 21.9304 5.05703V7.22269C21.9304 7.70318 22.3282 8.09444 22.8182 8.09444C23.3094 8.09444 23.706 7.70318 23.706 7.22269V5.05703C23.706 2.54359 21.6224 0.500343 19.0592 0.500343ZM9.77824 4.86643H16.2229C16.9287 4.86643 17.6066 5.14443 18.1001 5.6398C18.5971 6.13974 18.8724 6.81129 18.8712 7.5103V8.96322C18.8654 9.13368 18.7266 9.27211 18.5527 9.27668H7.44608C7.27341 9.27096 7.13458 9.13254 7.13108 8.96322V7.5103C7.11824 6.06309 8.30358 4.88131 9.77824 4.86643Z" fill="#D3D3D3"/>
<path d="M24.9455 11.0481H1.05563C0.565626 11.0481 0.166626 11.4382 0.166626 11.9198C0.166626 12.4003 0.565626 12.7893 1.05563 12.7893H2.29346V16.9467C2.29346 19.4545 4.37479 21.4966 6.93096 21.4988L8.83146 21.5C9.32263 21.5 9.71929 21.1099 9.72046 20.6282C9.72046 20.1477 9.32263 19.7576 8.83263 19.7576L6.93329 19.7565C5.35479 19.7542 4.07029 18.4946 4.07029 16.9467V12.7893H7.13046V13.9459C7.11879 15.3931 8.30296 16.5761 9.77763 16.5898H16.2223C17.6981 16.5761 18.8823 15.3931 18.8706 13.9459V12.7893H21.9308V16.9422C21.9308 18.4958 20.6428 19.7576 19.0596 19.7576H17.2011C16.71 19.7576 16.3121 20.1477 16.3121 20.6282C16.3121 21.1099 16.71 21.5 17.2011 21.5H19.0596C21.6216 21.5 23.7065 19.4567 23.7065 16.9422V12.7893H24.9455C25.4355 12.7893 25.8333 12.4003 25.8333 11.9198C25.8333 11.4382 25.4355 11.0481 24.9455 11.0481Z" fill="white"/>
</svg>
