<svg width="22" height="20" viewBox="0 0 22 20" fill="none" xmlns="http://www.w3.org/2000/svg">
<path d="M18.0001 4.16659C18.6444 4.16659 19.1667 4.68892 19.1667 5.33325V14.6666C19.1667 15.3109 18.6444 15.8333 18.0001 15.8333H12.7501L12.1667 18.1666H18.0001C19.9331 18.1666 21.5001 16.5996 21.5001 14.6666V5.33325C21.5001 3.40026 19.9331 1.83325 18.0001 1.83325H14.5001L13.9167 4.16659H18.0001Z" fill="black" fill-opacity="0.5"/>
<path d="M13.3333 0.666626H11L8.66667 19.3333H11L13.3333 0.666626Z" fill="#171A1C"/>
<path d="M12.1667 1.83329C12.1667 1.83329 5.03306 2.30532 2.83333 4.16663C2.34146 4.58283 1.95482 4.75698 1.66667 5.33329C1.08333 6.49996 0.5 14.6666 0.5 14.6666C0.5 16.5996 2.067 18.1666 4 18.1666H9.83333L12.1667 1.83329Z" fill="#171A1C"/>
</svg>
