<svg width="22" height="18" viewBox="0 0 22 18" fill="none" xmlns="http://www.w3.org/2000/svg">
<path fill-rule="evenodd" clip-rule="evenodd" d="M9 4C9.55228 4 10 4.44772 10 5V13C10 13.5523 9.55228 14 9 14H5C4.44772 14 4 13.5523 4 13V5C4 4.44772 4.44772 4 5 4H9ZM6 6H8V12H6V6Z" fill="#818181"/>
<path d="M17 4C17.5523 4 18 4.44772 18 5C18 5.55228 17.5523 6 17 6H13C12.4477 6 12 5.55228 12 5C12 4.44772 12.4477 4 13 4H17Z" fill="#818181"/>
<path d="M17 8C17.5523 8 18 8.44772 18 9C18 9.55228 17.5523 10 17 10H13C12.4477 10 12 9.55228 12 9C12 8.44772 12.4477 8 13 8H17Z" fill="#818181"/>
<path d="M18 13C18 12.4477 17.5523 12 17 12H13C12.4477 12 12 12.4477 12 13C12 13.5523 12.4477 14 13 14H17C17.5523 14 18 13.5523 18 13Z" fill="#818181"/>
<path fill-rule="evenodd" clip-rule="evenodd" d="M19 0C20.6569 0 22 1.34315 22 3V15C22 16.6569 20.6569 18 19 18H3C1.34315 18 0 16.6569 0 15V3C0 1.34315 1.34315 0 3 0H19ZM3 2H19C19.5523 2 20 2.44772 20 3V15C20 15.5523 19.5523 16 19 16H3C2.44772 16 2 15.5523 2 15V3C2 2.44772 2.44772 2 3 2Z" fill="#818181"/>
</svg>
