<svg width="10" height="7" viewBox="0 0 10 7" fill="none" xmlns="http://www.w3.org/2000/svg">
<path d="M9.60004 2.13338C9.06671 2.73338 8.06671 3.33338 7.00004 3.33338C6.00004 3.33338 5.40004 3.00005 4.86671 2.73338C4.33337 2.53338 3.80004 2.20005 2.93337 2.20005C2.13337 2.20005 1.40004 2.66672 1.00004 3.06672L0.333374 2.06672C0.933374 1.46672 1.86671 0.800049 2.93337 0.800049C3.93337 0.800049 4.53337 1.20005 5.06671 1.40005C5.60004 1.60005 6.13337 2.00005 7.00004 2.00005C7.80004 2.00005 8.53337 1.46672 8.93337 1.06672L9.60004 2.13338ZM9.66671 5.40005C9.06671 6.00005 8.13337 6.66672 7.06671 6.66672C6.06671 6.66672 5.46671 6.33338 4.93337 6.06672C4.40004 5.86672 3.86671 5.46672 3.00004 5.46672C2.20004 5.46672 1.46671 6.00005 1.06671 6.40005L0.400041 5.33338C1.00004 4.73338 1.93337 4.06672 3.00004 4.06672C4.00004 4.06672 4.60004 4.40005 5.13337 4.66672C5.66671 4.86672 6.20004 5.20005 7.06671 5.20005C7.86671 5.20005 8.60004 4.66672 9.00004 4.26672L9.66671 5.40005Z" fill="#666666"/>
</svg>
